<svg xmlns="http://www.w3.org/2000/svg" width="37.025" height="48.678" viewBox="0 0 37.025 48.678">
  <g id="man-user" transform="translate(-41.895)">
    <g id="Group_10" data-name="Group 10" transform="translate(41.895)">
      <path id="Path_5" data-name="Path 5" d="M114.335,23.807c5.412,0,9.8-5.329,9.8-11.9S122.695,0,114.335,0s-9.8,5.329-9.8,11.9S108.923,23.807,114.335,23.807Z" transform="translate(-95.823)" fill="#fff"/>
      <path id="Path_6" data-name="Path 6" d="M41.9,300.578c0-.4,0-.113,0,0Z" transform="translate(-41.895 -258.596)" fill="#fff"/>
      <path id="Path_7" data-name="Path 7" d="M308.085,301.85c.005-.11,0-.761,0,0Z" transform="translate(-271.063 -259.555)" fill="#fff"/>
      <path id="Path_8" data-name="Path 8" d="M78.907,194.521c-.182-11.452-1.677-14.715-13.123-16.781,0,0-1.611,2.053-5.366,2.053s-5.367-2.053-5.367-2.053C43.731,179.783,42.145,183,41.936,194.149c-.017.911-.025.958-.028.853,0,.2,0,.564,0,1.2,0,0,2.725,5.493,18.509,5.493S78.927,196.2,78.927,196.2c0-.41,0-.7,0-.89A7.373,7.373,0,0,1,78.907,194.521Z" transform="translate(-41.906 -153.02)" fill="#fff"/>
    </g>
  </g>
</svg>
